<?xml version="1.0" encoding="iso-8859-1"?>
<!-- Generator: Adobe Illustrator 16.0.0, SVG Export Plug-In . SVG Version: 6.00 Build 0)  -->
<!DOCTYPE svg PUBLIC "-//W3C//DTD SVG 1.1//EN" "http://www.w3.org/Graphics/SVG/1.1/DTD/svg11.dtd">
<svg version="1.1" id="Capa_1" xmlns="http://www.w3.org/2000/svg" xmlns:xlink="http://www.w3.org/1999/xlink" x="0px" y="0px"
	 width="481.467px" height="481.467px" viewBox="0 0 481.467 481.467" style="enable-background:new 0 0 481.467 481.467;"
	 xml:space="preserve">
<g>
	<path d="M481.464,213.494h-19.842c-12.33-101.122-90.99-180.441-192.136-193.483V0H215.01v19.665
		C113.797,31.342,32.214,112.36,19.848,213.494H0.003v54.477h19.845c12.1,99.171,89.194,178.375,188.202,192.951l5.447,0.804v19.741
		h54.477v-19.812c1.312-0.159,2.624-0.331,3.925-0.508c99.927-14.009,177.529-93.261,189.724-193.176h19.842V213.494z
		 M221.062,6.053h42.371v42.368h-42.371V6.053z M6.056,219.546h42.368v42.372H6.056V219.546z M261.921,475.408h-42.372V433.04
		h42.372V475.408z M269.386,443.16c-0.473,0.064-0.939,0.123-1.412,0.183v-16.354h-54.477v16.378l-2.808-0.413
		c-90.178-13.275-160.54-84.95-172.533-174.982h16.314v-54.477H38.166C50.342,122.341,123.771,49.449,215.01,37.962v16.512h54.477
		V38.361c91.014,12.782,161.73,84.101,173.824,175.133h-16.314v54.477h16.314C431.264,358.689,360.406,430.398,269.386,443.16z
		 M475.412,261.918h-42.369v-42.372h42.369V261.918z"/>
</g>
</svg>
