<svg height="682.66669pt" viewBox="-21 -21 682.66669 682.66669" width="682.66669pt" xmlns="http://www.w3.org/2000/svg"><path d="m357.5 0h-75c-10.355469 0-18.75 8.394531-18.75 18.75v75c0 10.355469 8.394531 18.75 18.75 18.75h75c10.355469 0 18.75-8.394531 18.75-18.75v-75c0-10.355469-8.394531-18.75-18.75-18.75zm0 0"/><path d="m357.5 527.5h-75c-10.355469 0-18.75 8.394531-18.75 18.75v75c0 10.355469 8.394531 18.75 18.75 18.75h75c10.355469 0 18.75-8.394531 18.75-18.75v-75c0-10.355469-8.394531-18.75-18.75-18.75zm0 0"/><path d="m621.25 263.75h-75c-10.355469 0-18.75 8.394531-18.75 18.75v75c0 10.355469 8.394531 18.75 18.75 18.75h75c10.355469 0 18.75-8.394531 18.75-18.75v-75c0-10.355469-8.394531-18.75-18.75-18.75zm0 0"/><path d="m226.25 54.835938c-79.785156 28.289062-143.125 91.628906-171.414062 171.414062h38.914062c.421875 0 .839844.023438 1.257812.035156 24.726563-59.152344 72.125-106.550781 131.277344-131.277344-.011718-.417968-.035156-.835937-.035156-1.257812zm0 0"/><path d="m544.996094 226.285156c.414062-.011718.832031-.035156 1.253906-.035156h38.914062c-28.289062-79.785156-91.628906-143.125-171.414062-171.414062v38.914062c0 .421875-.023438.839844-.035156 1.253906 59.152344 24.730469 106.550781 72.128906 131.28125 131.28125zm0 0"/><path d="m544.996094 413.714844c-24.730469 59.152344-72.125 106.550781-131.277344 131.277344.007812.417968.03125.835937.03125 1.257812v38.914062c79.785156-28.289062 143.125-91.628906 171.414062-171.414062h-38.914062c-.421875 0-.839844-.023438-1.253906-.035156zm0 0"/><path d="m95.007812 413.714844c-.417968.011718-.835937.035156-1.257812.035156h-38.914062c28.289062 79.785156 91.628906 143.125 171.414062 171.414062v-38.914062c0-.421875.023438-.839844.035156-1.253906-59.152344-24.730469-106.550781-72.128906-131.277344-131.28125zm0 0"/><path d="m112.5 357.5v-75c0-10.355469-8.394531-18.75-18.75-18.75h-75c-10.355469 0-18.75 8.394531-18.75 18.75v75c0 10.355469 8.394531 18.75 18.75 18.75h75c10.355469 0 18.75-8.394531 18.75-18.75zm0 0"/></svg>