<svg id="Layer_1" data-name="Layer 1" xmlns="http://www.w3.org/2000/svg" viewBox="0 0 16 16"><g id="g854"><g id="g862"><g id="g876"><path d="M10.76,1.81a1.49,1.49,0,0,1-.95,1.36V4.29H8.53V3.47L7.4,2.4h-4L2.22,3.47V7.32L3.36,8.4H4V9.58H3a1.61,1.61,0,0,1-1.46.9A1.54,1.54,0,0,1,0,9a1.48,1.48,0,0,1,1-1.36V3.17A1.49,1.49,0,0,1,0,1.81,1.54,1.54,0,0,1,1.58.32,1.61,1.61,0,0,1,3,1.22H7.71A1.61,1.61,0,0,1,9.17.32,1.54,1.54,0,0,1,10.76,1.81Z"/></g></g></g><path d="M14.93,12.43V7.34A1.69,1.69,0,0,0,16,5.79a1.76,1.76,0,0,0-1.81-1.7,1.85,1.85,0,0,0-1.2.45c-.06,0-.14.1-.2.16s0,0,0,0a1.56,1.56,0,0,0-.25.38H7.2a1.83,1.83,0,0,0-1.67-1,1.76,1.76,0,0,0-1.81,1.7A1.69,1.69,0,0,0,4.8,7.34v3.81h0v1.28a1.77,1.77,0,0,0-.78.62l0,.09a1.42,1.42,0,0,0-.17.35,1.57,1.57,0,0,0-.08.49,1.76,1.76,0,0,0,1.81,1.7,1.83,1.83,0,0,0,1.67-1h5.33a1.83,1.83,0,0,0,1.67,1A1.76,1.76,0,0,0,16,14,1.69,1.69,0,0,0,14.93,12.43Zm-1.47-.34-1.29,1.22H7.56L6.27,12.09V7.69L7.56,6.46h4.61l1.29,1.23v4.4Z"/></svg>