<svg id="Layer_1" data-name="Layer 1" xmlns="http://www.w3.org/2000/svg" viewBox="0 0 16 16"><path d="M12.31,15.65a3.78,3.78,0,0,1-1.3-.23.39.39,0,1,1,.27-.74,3.12,3.12,0,0,0,1.84.07.4.4,0,0,1,.49.27.4.4,0,0,1-.28.49A3.92,3.92,0,0,1,12.31,15.65Zm-8.54,0a.4.4,0,0,1-.39-.39.39.39,0,0,1,.39-.4,3,3,0,0,0,1-.21.4.4,0,0,1,.29.74,3.86,3.86,0,0,1-1.3.26Zm-1.41-.27-.15,0a3.7,3.7,0,0,1-1.1-.73.39.39,0,1,1,.54-.57,2.85,2.85,0,0,0,.87.57.4.4,0,0,1-.16.76Zm12.13-.53a.41.41,0,0,1-.3-.14.4.4,0,0,1,.05-.56,3.13,3.13,0,0,0,.65-.8.39.39,0,1,1,.69.37,3.59,3.59,0,0,1-.83,1A.37.37,0,0,1,14.49,14.85ZM9.9,14.66l-.15,0h-1a.4.4,0,1,1,0-.79H9.89a.36.36,0,0,1,.28.12.43.43,0,0,1,0,.58A.42.42,0,0,1,9.9,14.66Zm-2.58,0H6.13a.4.4,0,0,1,0-.79H7.32a.4.4,0,0,1,0,.79ZM.59,13.53a.38.38,0,0,1-.37-.25A3.36,3.36,0,0,1,0,12.07V12a.4.4,0,0,1,.41-.38A.39.39,0,0,1,.79,12,2.81,2.81,0,0,0,1,13a.4.4,0,0,1-.24.51A.3.3,0,0,1,.59,13.53Zm15-1.38h-.39a2.85,2.85,0,0,0-.17-1,.38.38,0,0,1,.23-.51.39.39,0,0,1,.51.23A3.61,3.61,0,0,1,16,12.07ZM.77,11a.41.41,0,0,1-.18-.05.39.39,0,0,1-.16-.54,3.58,3.58,0,0,1,.72-.92.4.4,0,0,1,.72.18.54.54,0,0,1-.14.36,2.8,2.8,0,0,0-.61.76A.4.4,0,0,1,.77,11Zm13.84-.8a.4.4,0,0,1-.27-.11L14.27,10a.41.41,0,0,1-.14-.3V8.64a.4.4,0,0,1,.4-.39.39.39,0,0,1,.39.39v.92a.38.38,0,0,1,0,.5A.39.39,0,0,1,14.61,10.19ZM1.47,8.6a.38.38,0,0,1-.39-.39V7a.38.38,0,0,1,.39-.39.39.39,0,0,1,.4.39V8.21A.39.39,0,0,1,1.47,8.6Zm13.06-1a.4.4,0,0,1-.4-.4V6.28a.37.37,0,0,1,.14-.3l.17-.16a.4.4,0,0,1,.56,0,.4.4,0,0,1,0,.56l-.09.08v.74A.39.39,0,0,1,14.53,7.59ZM1,6.16A.4.4,0,0,1,.68,6,3.36,3.36,0,0,1,.11,4.8a.41.41,0,0,1,.28-.49.42.42,0,0,1,.49.29,2.65,2.65,0,0,0,.44.93.39.39,0,0,1-.09.55A.4.4,0,0,1,1,6.16Zm14.46-.9-.12,0a.41.41,0,0,1-.26-.5,2.5,2.5,0,0,0,.13-.81,1.48,1.48,0,0,0,0-.21A.4.4,0,0,1,16,3.66a2.44,2.44,0,0,1,0,.27A3.43,3.43,0,0,1,15.84,5,.41.41,0,0,1,15.46,5.26Zm-15-1.6H.38a.4.4,0,0,1-.3-.47A3.6,3.6,0,0,1,.61,2a.4.4,0,0,1,.55-.11.39.39,0,0,1,.1.55,3,3,0,0,0-.41,1A.39.39,0,0,1,.47,3.66Zm14.69-.94a.39.39,0,0,1-.34-.19,2.67,2.67,0,0,0-.69-.77.39.39,0,0,1-.07-.56.4.4,0,0,1,.55-.07,3.61,3.61,0,0,1,.88,1,.38.38,0,0,1-.13.54A.36.36,0,0,1,15.16,2.72ZM9.89,2.16H9.54a.4.4,0,1,1,0-.79h.19a3.41,3.41,0,0,1,.6-.46.38.38,0,0,1,.54.13.38.38,0,0,1-.13.54,2.8,2.8,0,0,0-.57.46A.36.36,0,0,1,9.89,2.16Zm-1.8,0H6.9a.4.4,0,0,1,0-.79H8.09a.4.4,0,0,1,0,.79ZM5.61,1.73a.39.39,0,0,1-.23-.07,3.09,3.09,0,0,0-.94-.43A.4.4,0,0,1,4.15.75.39.39,0,0,1,4.63.47,3.63,3.63,0,0,1,5.83,1a.39.39,0,0,1,.1.55A.39.39,0,0,1,5.61,1.73ZM2,1.6a.4.4,0,0,1-.2-.74A3.84,3.84,0,0,1,3,.41a.4.4,0,0,1,.46.32.4.4,0,0,1-.32.46,3,3,0,0,0-1,.35A.36.36,0,0,1,2,1.6Zm11.08-.37H13a3,3,0,0,0-1-.06A.39.39,0,0,1,11.5.82a.39.39,0,0,1,.35-.44,3.86,3.86,0,0,1,1.31.07.4.4,0,0,1,.3.47A.41.41,0,0,1,13.07,1.23Z"/><path d="M13,10.53V5.47a1.69,1.69,0,0,0,1.07-1.54,1.75,1.75,0,0,0-1.8-1.69,1.82,1.82,0,0,0-1.66,1H5.35a1.82,1.82,0,0,0-1.66-1,1.75,1.75,0,0,0-1.8,1.69A1.68,1.68,0,0,0,3,5.47v5.06a1.67,1.67,0,0,0-1.08,1.54,1.75,1.75,0,0,0,1.8,1.69,1.82,1.82,0,0,0,1.66-1h5.3a1.82,1.82,0,0,0,1.66,1,1.75,1.75,0,0,0,1.8-1.69A1.68,1.68,0,0,0,13,10.53Zm-1.46-.34L10.29,11.4H5.71L4.42,10.19V5.81L5.71,4.6h4.58l1.29,1.21Z"/></svg>