<svg xmlns="http://www.w3.org/2000/svg" width="28.35" height="27" viewBox="0 0 28.35 27">
  <g id="Group_10410" data-name="Group 10410" transform="translate(0.001)">
    <line id="Line_648" data-name="Line 648" y2="19.575" transform="translate(24.974 4.05)" fill="none" stroke="#000" stroke-width="2"/>
    <line id="Line_650" data-name="Line 650" x2="21.6" transform="translate(3.374 23.288)" fill="none" stroke="#000" stroke-width="2"/>
    <line id="Line_651" data-name="Line 651" x2="21.6" transform="translate(3.374 3.375)" fill="none" stroke="#000" stroke-width="2"/>
    <line id="Line_649" data-name="Line 649" y2="19.575" transform="translate(3.374 4.05)" fill="none" stroke="#000" stroke-width="2"/>
    <g id="Ellipse_213" data-name="Ellipse 213" transform="translate(21.599 0)" fill="#000" stroke="#000" stroke-width="1">
      <ellipse cx="3.375" cy="3.375" rx="3.375" ry="3.375" stroke="none"/>
      <ellipse cx="3.375" cy="3.375" rx="2.875" ry="2.875" fill="none"/>
    </g>
    <g id="Ellipse_215" data-name="Ellipse 215" transform="translate(-0.001 0)" fill="#000" stroke="#000" stroke-width="1">
      <ellipse cx="3.375" cy="3.375" rx="3.375" ry="3.375" stroke="none"/>
      <ellipse cx="3.375" cy="3.375" rx="2.875" ry="2.875" fill="none"/>
    </g>
    <g id="Ellipse_240" data-name="Ellipse 240" transform="translate(10.799 9.788)" fill="#000" stroke="#000" stroke-width="1">
      <ellipse cx="3.375" cy="3.375" rx="3.375" ry="3.375" stroke="none"/>
      <ellipse cx="3.375" cy="3.375" rx="2.875" ry="2.875" fill="none"/>
    </g>
    <g id="Ellipse_214" data-name="Ellipse 214" transform="translate(21.599 20.25)" fill="#000" stroke="#000" stroke-width="1">
      <ellipse cx="3.375" cy="3.375" rx="3.375" ry="3.375" stroke="none"/>
      <ellipse cx="3.375" cy="3.375" rx="2.875" ry="2.875" fill="none"/>
    </g>
    <g id="Ellipse_216" data-name="Ellipse 216" transform="translate(-0.001 20.25)" fill="#000" stroke="#000" stroke-width="1">
      <ellipse cx="3.375" cy="3.375" rx="3.375" ry="3.375" stroke="none"/>
      <ellipse cx="3.375" cy="3.375" rx="2.875" ry="2.875" fill="none"/>
    </g>
  </g>
</svg>
