<?xml version="1.0" encoding="iso-8859-1"?>
<!-- Generator: Adobe Illustrator 19.0.0, SVG Export Plug-In . SVG Version: 6.00 Build 0)  -->
<svg version="1.1" id="Capa_1" xmlns="http://www.w3.org/2000/svg" xmlns:xlink="http://www.w3.org/1999/xlink" x="0px" y="0px"
	 viewBox="0 0 512.025 512.025" style="enable-background:new 0 0 512.025 512.025;" xml:space="preserve">
<g>
	<g>
		<g>
			<path d="M226.333,0.013h-160c-8.837,0-16,7.163-16,16v480c0,8.837,7.163,16,16,16h160c8.837,0,16-7.163,16-16v-480
				C242.333,7.176,235.169,0.013,226.333,0.013z M210.333,480.013h-128v-48h80v-32h-80v-48h48v-32h-48v-48h80v-32h-80v-48h48v-32
				h-48v-48h80v-32h-80v-48h128V480.013z"/>
			<path d="M439.133,404.813l-52.8,52.64V54.573l52.64,52.64l22.56-22.56l-80-80c-6.241-6.204-16.319-6.204-22.56,0l-80,80
				l22.56,22.56l52.8-52.64v402.88l-52.64-52.64l-22.56,22.56l80,80c6.241,6.204,16.319,6.204,22.56,0l80-80L439.133,404.813z"/>
		</g>
	</g>
</g>

</svg>
